<svg id="SvgjsSvg1001" width="288" height="288" xmlns="http://www.w3.org/2000/svg" version="1.1" xmlns:xlink="http://www.w3.org/1999/xlink" xmlns:svgjs="http://svgjs.com/svgjs"><defs id="SvgjsDefs1002"></defs><g id="SvgjsG1008" transform="matrix(1,0,0,1,0,0)"><svg xmlns="http://www.w3.org/2000/svg" width="288" height="288" enable-background="new 0 0 128 128" viewBox="0 0 128 128"><path d="m64 16.4c-26.3 0-47.6 21.3-47.6 47.6s21.3 47.6 47.6 47.6 47.6-21.3 47.6-47.6-21.3-47.6-47.6-47.6zm0 91.7c-24.4 0-44.1-19.8-44.1-44.1s19.7-44.1 44.1-44.1 44.1 19.8 44.1 44.1c0 24.4-19.7 44.1-44.1 44.1z" fill="#ffbf66" class="color000 svgShape"></path><path d="m64 24.5c-21.8 0-39.5 17.7-39.5 39.5s17.7 39.5 39.5 39.5 39.5-17.7 39.5-39.5-17.7-39.5-39.5-39.5zm0 75.5c-19.9 0-36-16.1-36-36s16.1-36 36-36 36 16.1 36 36-16.1 36-36 36z" fill="#ffbf66" class="color000 svgShape"></path><path d="m87.2 46.4c-2.6-2.3-6.5-2.1-8.8.4l-19 21-9.9-10.2c-2.4-2.5-6.3-2.5-8.8-.1s-2.5 6.3-.1 8.8l14.5 15c1.2 1.2 2.8 1.9 4.5 1.9h.1c1.7 0 3.4-.8 4.5-2l23.5-25.9c2.2-2.6 2.1-6.6-.5-8.9zm-2.2 6.5-23.5 25.9c-.5.6-1.2.9-2 .9s-1.5-.3-2-.8l-14.5-15c-1-1.1-1-2.8.1-3.9s2.8-1 3.9.1l11.2 11.6c.3.4.736.486 1.3.5.556-.006.9-.2 1.3-.6l20.2-22.4c1-1.1 2.8-1.2 3.9-.1 1 1 1.1 2.7.1 3.8z" fill="#ffbf66" class="color000 svgShape"></path></svg></g></svg>