<svg width="9" height="13" viewBox="0 0 9 13" fill="none" xmlns="http://www.w3.org/2000/svg">
<path fill-rule="evenodd" clip-rule="evenodd" d="M0 2C0 1.60218 0.158035 1.22064 0.43934 0.93934C0.720644 0.658035 1.10218 0.5 1.5 0.5H4.9395C5.33729 0.500085 5.71876 0.658176 6 0.9395L8.5605 3.5C8.84182 3.78124 8.99992 4.16271 9 4.5605V11C9 11.3978 8.84196 11.7794 8.56066 12.0607C8.27936 12.342 7.89782 12.5 7.5 12.5H1.5C1.10218 12.5 0.720644 12.342 0.43934 12.0607C0.158035 11.7794 0 11.3978 0 11V2ZM1.5 6.5C1.5 6.30109 1.57902 6.11032 1.71967 5.96967C1.86032 5.82902 2.05109 5.75 2.25 5.75H6.75C6.94891 5.75 7.13968 5.82902 7.28033 5.96967C7.42098 6.11032 7.5 6.30109 7.5 6.5C7.5 6.69891 7.42098 6.88968 7.28033 7.03033C7.13968 7.17098 6.94891 7.25 6.75 7.25H2.25C2.05109 7.25 1.86032 7.17098 1.71967 7.03033C1.57902 6.88968 1.5 6.69891 1.5 6.5ZM2.25 8.75C2.05109 8.75 1.86032 8.82902 1.71967 8.96967C1.57902 9.11032 1.5 9.30109 1.5 9.5C1.5 9.69891 1.57902 9.88968 1.71967 10.0303C1.86032 10.171 2.05109 10.25 2.25 10.25H6.75C6.94891 10.25 7.13968 10.171 7.28033 10.0303C7.42098 9.88968 7.5 9.69891 7.5 9.5C7.5 9.30109 7.42098 9.11032 7.28033 8.96967C7.13968 8.82902 6.94891 8.75 6.75 8.75H2.25Z" fill="#9F9FA7"/>
</svg>
