<svg width="8" height="8" viewBox="0 0 8 8" fill="none" xmlns="http://www.w3.org/2000/svg">
<path d="M0.5 5V6.5C0.5 7.32843 2.067 8 4 8C5.933 8 7.5 7.32843 7.5 6.5V5C7.5 5.82843 5.933 6.5 4 6.5C2.067 6.5 0.5 5.82843 0.5 5Z" fill="#18A1FA"/>
<path d="M0.5 2.5V4C0.5 4.82843 2.067 5.5 4 5.5C5.933 5.5 7.5 4.82843 7.5 4V2.5C7.5 3.32843 5.933 4 4 4C2.067 4 0.5 3.32843 0.5 2.5Z" fill="#18A1FA"/>
<path d="M7.5 1.5C7.5 2.32843 5.933 3 4 3C2.067 3 0.5 2.32843 0.5 1.5C0.5 0.671573 2.067 0 4 0C5.933 0 7.5 0.671573 7.5 1.5Z" fill="#18A1FA"/>
</svg>
