<svg width="16" height="14" viewBox="0 0 16 14" fill="none" xmlns="http://www.w3.org/2000/svg">
<path fill-rule="evenodd" clip-rule="evenodd" d="M5.70703 0.293031C5.8945 0.480558 5.99982 0.734866 5.99982 1.00003C5.99982 1.26519 5.8945 1.5195 5.70703 1.70703L3.41403 4.00003H9.00003C10.8565 4.00003 12.637 4.73753 13.9498 6.05028C15.2625 7.36304 16 9.14351 16 11V13C16 13.2652 15.8947 13.5196 15.7071 13.7071C15.5196 13.8947 15.2652 14 15 14C14.7348 14 14.4805 13.8947 14.2929 13.7071C14.1054 13.5196 14 13.2652 14 13V11C14 9.67395 13.4732 8.40218 12.5356 7.4645C11.5979 6.52681 10.3261 6.00003 9.00003 6.00003H3.41403L5.70703 8.29303C5.80254 8.38528 5.87872 8.49562 5.93113 8.61763C5.98354 8.73963 6.01113 8.87085 6.01228 9.00363C6.01344 9.13641 5.98813 9.26809 5.93785 9.39098C5.88757 9.51388 5.81332 9.62553 5.71943 9.71943C5.62553 9.81332 5.51388 9.88757 5.39098 9.93785C5.26809 9.98813 5.13641 10.0134 5.00363 10.0123C4.87085 10.0111 4.73963 9.98354 4.61763 9.93113C4.49562 9.87872 4.38528 9.80254 4.29303 9.70703L0.293031 5.70703C0.105559 5.5195 0.000244141 5.26519 0.000244141 5.00003C0.000244141 4.73487 0.105559 4.48056 0.293031 4.29303L4.29303 0.293031C4.48056 0.105559 4.73487 0.000244141 5.00003 0.000244141C5.26519 0.000244141 5.5195 0.105559 5.70703 0.293031Z" fill="#FF0000" fill-opacity="0.62"/>
</svg>
